<?xml version="1.0" encoding="UTF-8" standalone="no"?>
<!-- Created with Inkscape (http://www.inkscape.org/) -->

<svg
   width="429.66406"
   height="241.67548"
   viewBox="0 0 113.68195 63.943303"
   version="1.1"
   id="svg1"
   xml:space="preserve"
   inkscape:version="1.4.3 (0d15f75042, 2025-12-25)"
   sodipodi:docname="vueseq.svg"
   xmlns:inkscape="http://www.inkscape.org/namespaces/inkscape"
   xmlns:sodipodi="http://sodipodi.sourceforge.net/DTD/sodipodi-0.dtd"
   xmlns:xlink="http://www.w3.org/1999/xlink"
   xmlns="http://www.w3.org/2000/svg"
   xmlns:svg="http://www.w3.org/2000/svg"><sodipodi:namedview
     id="namedview1"
     pagecolor="#ffffff"
     bordercolor="#000000"
     borderopacity="0.25"
     inkscape:showpageshadow="2"
     inkscape:pageopacity="0.0"
     inkscape:pagecheckerboard="0"
     inkscape:deskcolor="#d1d1d1"
     inkscape:document-units="mm"
     showguides="true"
     inkscape:zoom="2"
     inkscape:cx="317"
     inkscape:cy="110.75"
     inkscape:window-width="3424"
     inkscape:window-height="1382"
     inkscape:window-x="0"
     inkscape:window-y="0"
     inkscape:window-maximized="1"
     inkscape:current-layer="g9"><sodipodi:guide
       position="76.031873,-38.260298"
       orientation="0,-1"
       id="guide3"
       inkscape:locked="false" /></sodipodi:namedview><defs
     id="defs1"><linearGradient
       id="linearGradient1"
       inkscape:collect="always"><stop
         style="stop-color:#42d392;stop-opacity:1;"
         offset="0"
         id="stop1" /><stop
         style="stop-color:#647eff;stop-opacity:1;"
         offset="1"
         id="stop2" /></linearGradient><linearGradient
       inkscape:collect="always"
       xlink:href="#linearGradient1"
       id="linearGradient2"
       x1="-159.79349"
       y1="72.263908"
       x2="362.84668"
       y2="223.66577"
       gradientUnits="userSpaceOnUse" /></defs><g
     inkscape:label="Layer 1"
     inkscape:groupmode="layer"
     id="layer1"
     transform="translate(-47.141826,-130.91191)"><g
       id="g9"
       transform="matrix(0.21020677,0,0,0.21020677,82.95955,117.23)"><path
         id="path1"
         style="fill:url(#linearGradient2)"
         d="m -145.28311,65.087846 c -13.81002,0 -25.10971,0.100528 -25.10971,0.223711 0,0.190554 5.30531,9.782935 16.14406,29.197965 1.3253,2.373956 2.5272,4.258436 2.71649,4.2628 h 0.002 0.002 l 0.002,-0.0025 h 0.002 0.002 c 0.0502,-0.03102 0.086,-0.04529 0.10817,-0.04179 l 0.002,0.0025 h 0.002 0.002 l 0.002,0.0025 h 0.002 l 0.002,0.0025 0.002,0.0025 h 0.002 v 0.0025 l 0.002,0.0025 v 0.0025 c 0.008,0.02827 -0.009,0.08933 -0.059,0.169627 -0.1061,0.171673 1.34641,3.065391 3.30649,6.588411 4.00816,7.20424 4.05047,7.27249 4.34147,7.00879 0.0373,-0.0338 0.0644,-0.0507 0.0811,-0.0541 l 0.002,-0.002 h 0.002 0.002 l 0.002,0.002 h 0.002 0.002 v 0.002 h 0.002 v 0.002 0.002 h 0.002 v 0.002 c 0.003,0.0245 -0.0196,0.0831 -0.0664,0.16471 -0.17377,0.30295 4.90704,9.53875 33.30097,60.53716 6.8057,12.22375 13.94789,25.0835 15.871182,28.576 6.807727,12.36213 7.276725,13.13854 9.887532,16.36531 1.710658,2.11425 5.497841,5.5135 8.02901,7.20792 5.371247,3.59562 12.443287,6.00815 18.86547,6.43599 11.179979,0.74479 21.54971,-2.84279 29.463467,-10.19482 3.648528,-3.38956 5.959031,-6.76647 11.296173,-16.50791 1.714152,-3.12869 3.886723,-7.05861 4.825765,-8.7321 0.939042,-1.67349 2.719436,-4.88842 3.9579627,-7.144 2.7853902,-5.07268 9.8743383,-17.86717 12.1664333,-21.96054 0.9370759,-1.67349 2.1913439,-3.67677 2.7877824,-4.4521 2.9502373,-3.83509 8.4760606,-7.02703 13.8012436,-7.97001 1.025128,-0.1815 10.439642,-0.27779 27.125566,-0.27779 h 25.552214 l 0.452339,1.25868 c 1.230499,3.43289 4.86635,7.74312 8.151928,9.66382 5.302642,3.09984 12.206857,3.64056 17.741998,1.39143 4.774374,-1.94001 9.124214,-6.241 10.870874,-10.7455 l 0.60968,-1.56843 h 28.72596 28.72595 l 0.61951,1.49714 c 1.95175,4.70895 6.69517,9.35993 11.13638,10.92004 5.61963,1.97407 11.24149,1.68486 16.23994,-0.83584 4.21664,-2.12644 7.15517,-5.31499 9.39094,-10.19237 l 0.63672,-1.38897 h 28.79233 c 24.4883,0 28.7948,0.0566 28.7948,0.37121 0,0.20349 0.53402,1.43835 1.18739,2.74353 3.83389,7.65855 12.55694,11.90766 21.08045,10.27104 6.51458,-1.25089 11.65241,-5.20419 14.5535,-11.19784 l 1.05956,-2.18794 h 18.89497 18.89497 v 5.95907 5.95661 l 0.99317,-0.63918 c 0.5457,-0.35046 4.02815,-2.39489 7.73893,-4.54305 3.71078,-2.14817 9.36568,-5.45263 12.56714,-7.34558 3.20146,-1.89295 6.62392,-3.90837 7.60618,-4.47914 0.98227,-0.57078 1.78722,-1.07521 1.78722,-1.12101 0,-0.1379 -2.48315,-1.59371 -18.38854,-10.77009 -3.92906,-2.26682 -8.27647,-4.77636 -9.65891,-5.57802 l -2.51244,-1.45781 -0.0713,5.91974 -0.0713,5.92219 -18.81138,0.0688 -18.81139,0.0688 -1.27343,-2.51245 c -1.55217,-3.06008 -3.14909,-5.11046 -5.34202,-6.86128 -5.66914,-4.52621 -13.16111,-5.73023 -19.77752,-3.17867 -5.10662,1.96932 -9.13143,5.81557 -11.26668,10.76763 l -0.71292,1.65448 H 235.08694 206.4544 l -0.73751,-1.73561 c -2.40333,-5.65481 -6.88535,-9.51956 -13.23336,-11.41417 -1.17415,-0.35044 -2.44844,-0.47071 -4.8946,-0.45971 -3.91461,0.0176 -5.6659,0.41885 -9.15003,2.09944 -4.01651,1.93737 -7.88824,6.0604 -9.40077,10.0129 l -0.5728,1.49715 h -28.66204 -28.66204 l -1.05218,-2.20515 c -1.19366,-2.50095 -3.3866,-5.44192 -5.08881,-6.82687 -4.87741,-3.96834 -10.944842,-5.52453 -16.815198,-4.31197 -4.385781,0.90591 -7.208827,2.42506 -10.31037,5.54606 -1.829042,1.84052 -2.374658,2.60744 -3.530207,4.97327 l -1.364391,2.79761 -26.633893,0.0959 c -26.090471,0.0935 -26.683367,0.10623 -29.016046,0.65884 -7.5289814,1.78361 -13.7633549,5.29047 -18.5040907,10.40871 -2.9126323,3.14456 -4.2704857,5.40774 -16.0260613,26.69781 -3.093518,5.60255 -6.485431,11.73493 -7.537338,13.6267 -1.051906,1.89177 -3.195836,5.76169 -4.764305,8.59935 -3.305645,5.98054 -3.862193,6.83382 -5.863194,8.99514 -3.299491,3.56385 -7.887359,6.30733 -12.690064,7.58897 -2.250174,0.60048 -3.161939,0.69982 -6.581035,0.71292 -4.436352,0.0171 -6.92981,-0.44679 -10.61029,-1.97898 -4.292883,-1.78713 -9.148776,-5.80472 -11.800137,-9.76215 -0.719785,-1.07436 -1.403474,-1.9566 -1.536477,-1.9839 h -0.0025 -0.0025 c -0.117216,0 -0.313863,-0.10845 -0.43513,-0.24092 -0.04404,-0.0481 -0.0673,-0.0838 -0.07129,-0.10325 v -0.002 -0.002 -0.002 -0.002 l 0.0025,-0.002 v -0.002 h 0.0025 l 0.0025,-0.002 h 0.0025 0.0025 l 0.0025,-0.002 c 0.02582,-9.7e-4 0.0831,0.0229 0.167169,0.0713 0.181901,0.1047 0.331879,0.11327 0.331879,0.0197 0,-0.20618 -1.372654,-2.74632 -4.710222,-8.72473 -1.381079,-2.47385 -3.225242,-5.80631 -4.100547,-7.40704 -0.875305,-1.60073 -3.915696,-7.07812 -6.755579,-12.17135 -2.839882,-5.09323 -6.316553,-11.34313 -7.726633,-13.88975 -4.34101,-7.83991 -20.41986,-36.68262 -22.78901,-40.8801 -1.23202,-2.18282 -3.52105,-6.31948 -5.08881,-9.19427 -1.67518,-3.07174 -2.90469,-5.06304 -3.11966,-5.05685 h -0.002 -0.002 l -0.002,0.002 h -0.002 -0.002 l -0.002,0.002 c -0.0651,0.0402 -0.11052,0.0549 -0.13521,0.0492 h -0.002 -0.002 l -0.002,-0.002 h -0.002 l -0.002,-0.002 v -0.002 l -0.002,-0.002 -0.002,-0.002 v -0.002 l -0.002,-0.002 c -0.007,-0.0278 0.0128,-0.0835 0.0615,-0.16225 0.23829,-0.38556 -1.19009,-2.96874 -1.52664,-2.76074 -0.0412,0.0255 -0.0751,0.0371 -0.0959,0.0369 h -0.002 -0.002 c -8.8e-4,-2.7e-4 -0.007,-0.002 -0.007,-0.002 l -0.002,-0.002 h -0.002 l -0.002,-0.002 -0.002,-0.002 v -0.002 h -0.002 c -0.0116,-0.0264 0.006,-0.0871 0.0565,-0.16963 0.10198,-0.165 0.0474,-0.55655 -0.12046,-0.87026 -0.24798,-0.46336 -0.35331,-0.50177 -0.56542,-0.20405 -0.0773,0.10852 -0.12902,0.16995 -0.15488,0.18192 h -0.002 l -0.002,0.002 h -0.002 -0.002 v -0.002 h -0.002 -0.002 v -0.002 l -0.002,-0.002 v -0.002 -0.002 c -0.005,-0.0357 0.02,-0.13759 0.0737,-0.30238 0.11025,-0.33826 -0.75932,-2.15437 -2.72141,-5.688647 -1.58521,-2.855408 -4.62766,-8.329088 -6.76049,-12.163975 -3.95026,-7.102659 -4.98509,-9.030365 -4.85772,-9.041855 0.0393,-0.0036 6.73868,-0.03151 14.88784,-0.06146 14.48814,-0.05324 14.86926,-0.04108 17.12249,0.528548 4.56343,1.153655 8.81708,3.656051 12.15414,7.148916 2.8257,2.957625 3.7549,4.44222 8.22076,13.127653 2.179141,4.23809 4.354941,8.41949 4.835598,9.29261 0.921382,1.67372 8.434906,16.10326 14.880464,28.576 2.10563,4.07459 3.920664,7.52702 4.031714,7.67254 0.11105,0.14552 1.416204,2.67085 2.900867,5.61244 1.484663,2.94159 3.384926,6.634 4.223466,8.20356 0.838541,1.56955 2.814653,5.35411 4.390634,8.41005 3.538977,6.86232 6.367821,12.17972 6.826871,12.83511 0.312087,0.44556 0.56574,0.0627 2.541947,-3.79079 2.391581,-4.6634 9.660363,-18.5787 13.77666,-26.37577 2.281356,-4.32133 11.264125,-21.52394 17.852624,-34.1909 1.299504,-2.4984 2.218093,-4.56119 2.109275,-4.73726 -0.04986,-0.0807 -0.07183,-0.1378 -0.06638,-0.16717 v -0.002 l 0.0025,-0.002 v -0.002 -0.002 l 0.0025,-0.002 0.0025,-0.002 0.0025,-0.002 0.0025,-0.002 h 0.0025 c 0.02349,-0.007 0.07106,0.007 0.13521,0.0467 0.333408,0.20606 0.672041,-0.54968 0.425297,-0.94892 -0.03946,-0.0638 -0.05503,-0.10985 -0.04917,-0.13521 l 0.0025,-0.002 v -0.002 -0.002 l 0.0025,-0.002 0.0025,-0.002 v -0.002 h 0.0025 l 0.0025,-0.002 h 0.0025 l 0.0025,-0.002 h 0.0025 c 0.02521,-0.006 0.07396,0.007 0.137669,0.0467 0.169749,0.10492 1.821112,-2.7851 4.174298,-7.30134 6.6349874,-12.733879 7.2396831,-13.692121 10.654541,-16.913525 4.32250696,-4.077635 9.0099417,-6.287639 14.435501,-6.809663 1.329776,-0.127948 8.371432,-0.208832 15.647474,-0.177002 11.313649,0.04949 13.215215,0.114118 13.139945,0.437589 -0.04841,0.20803 -1.015812,2.043589 -2.151067,4.080881 -1.135256,2.037291 -5.399413,9.717146 -9.474527,17.065948 -4.075114,7.348802 -9.922091,17.876622 -12.994901,23.393772 -3.07281,5.51715 -5.5470689,10.07092 -5.4993559,10.11862 0.047713,0.0477 1.1057399,-0.20885 2.3526519,-0.57034 2.72072,-0.78876 8.030009,-1.71486 9.865407,-1.72086 1.761721,-0.006 3.306497,-0.27652 3.306497,-0.57771 0,-0.13414 0.698948,-1.45874 1.553684,-2.94266 1.798889,-3.12308 12.357624,-21.97637 13.734869,-24.52462 0.511218,-0.94589 2.058469,-3.743341 3.43679,-6.217195 1.37832,-2.473854 4.077056,-7.356252 5.998403,-10.848752 1.921347,-3.4925 4.211267,-7.599929 5.088809,-9.127898 1.819448,-3.168007 5.641941,-10.245821 5.641941,-10.448038 0,-0.07405 -11.266535,-0.13521 -25.035958,-0.13521 -21.337566,0 -25.44516,0.06055 -27.8188241,0.413005 -7.55192494,1.121353 -14.4433369,4.719761 -20.4756969,10.691416 -4.48126,4.436165 -5.180129,5.57272 -14.578086,23.688776 -2.113747,4.074576 -6.251557,11.991946 -9.194274,17.594496 -2.942717,5.60255 -7.497254,14.29242 -10.121076,19.31289 -2.623822,5.02046 -5.527785,10.54875 -6.4532,12.28444 -0.925415,1.73568 -1.686811,3.34315 -1.693811,3.572 -5.47e-4,0.0179 -0.005,0.0305 -0.0098,0.0393 v 0.002 l -0.0025,0.002 -0.0025,0.002 v 0.002 l -0.0025,0.002 h -0.0025 -0.0025 l -0.0025,0.002 h -0.0025 -0.0025 -0.0025 c -0.102275,-0.0157 -0.422189,-0.50121 -0.791592,-1.22427 -0.446073,-0.87313 -2.837636,-5.45802 -5.314979,-10.18745 -5.724588,-10.92865 -6.910813,-13.19407 -8.85502,-16.93319 -0.870154,-1.67349 -3.01861,-5.78092 -4.774139,-9.1279 -1.755529,-3.34698 -4.014951,-7.66432 -5.022433,-9.59253 -0.960748,-1.83876 -1.848704,-3.27664 -2.033065,-3.31141 -0.0014,-10e-5 -0.0036,-8e-5 -0.0049,0 h -0.0025 -0.0025 l -0.0025,0.002 h -0.0025 l -0.0025,0.002 c -0.0388,0.0352 -0.07096,0.0551 -0.0885,0.059 h -0.0025 -0.0025 -0.0025 l -0.0025,-0.002 h -0.0025 l -0.0025,-0.002 v -0.002 l -0.0025,-0.002 c -0.0045,-0.0219 0.01422,-0.0765 0.059,-0.15488 0.09554,-0.16712 -1.266388,-3.084554 -3.026243,-6.482696 -5.328016,-10.287984 -6.07198,-11.623868 -6.37945,-11.433841 -0.06695,0.04137 -0.114628,0.06074 -0.140126,0.05654 h -0.0025 l -0.0025,-0.0025 h -0.0025 l -0.0025,-0.0025 h -0.0025 l -0.0025,-0.0025 -0.0025,-0.0025 v -0.0025 l -0.0025,-0.0025 v -0.0025 c -0.0073,-0.02943 0.01508,-0.09342 0.07129,-0.184377 0.329187,-0.532636 -2.528867,-4.526131 -5.322353,-7.436545 -3.21503,-3.349604 -6.22726,-5.612831 -10.1432,-7.625838 -3.72333,-1.913992 -6.31915,-2.780649 -10.41116,-3.476124 -2.99076,-0.508308 -4.29139,-0.533465 -28.24412,-0.533465 z m 164.769248,0.297462 c 0.121213,-0.0082 0.23022,0.01634 0.28517,0.07129 0.01511,0.01511 0.02328,0.03089 0.02458,0.04425 v 0.0025 c -4.9e-5,5.91e-4 -3.8e-5,0.0058 0,0.0074 -3.11e-4,0.0011 -0.002,0.0062 -0.0025,0.0074 v 0.0025 c -0.02862,0.05016 -0.168284,0.08447 -0.368754,0.07621 -0.154112,-0.0063 -0.247518,-0.02626 -0.275337,-0.05408 l -0.0025,-0.0025 v -0.0025 l -0.0025,-0.0025 c -3.61e-4,-9.38e-4 -0.0022,-0.0064 -0.0025,-0.0074 v -0.0025 -0.0025 -0.0025 c 2.81e-4,-10e-4 0.002,-0.0063 0.0025,-0.0074 v -0.0025 c 0.01335,-0.02128 0.0545,-0.04736 0.120459,-0.07375 0.07162,-0.02866 0.148525,-0.04672 0.221253,-0.05163 z m 10.676666,0 c 0.119889,0 0.23847,0.01984 0.32942,0.05654 0.03411,0.01376 0.05722,0.02682 0.06883,0.03933 l 0.0025,0.0025 c 6.68e-4,0.001 0.0044,0.0064 0.0049,0.0074 v 0.0025 l 0.0025,0.0025 v 0.0025 c -3.3e-5,4.79e-4 -3.5e-5,0.0033 0,0.0049 v 0.0025 l -0.0025,0.0025 v 0.0025 l -0.0025,0.0025 -0.0025,0.0025 -0.0025,0.0025 c -0.04021,0.03256 -0.182248,0.05654 -0.398255,0.05654 -0.214763,0 -0.359519,-0.02428 -0.400713,-0.05654 l -0.0025,-0.0025 v -0.0025 l -0.0025,-0.0025 -0.0025,-0.0025 v -0.0025 c 3.5e-5,-0.0016 3.3e-5,-0.0044 0,-0.0049 v -0.0025 -0.0025 -0.0025 c 5.19e-4,-0.001 0.0042,-0.0064 0.0049,-0.0074 l 0.0025,-0.0025 c 0.01161,-0.01252 0.03473,-0.02803 0.06883,-0.04179 0.09095,-0.0367 0.211989,-0.05654 0.331879,-0.05654 z m 22.66118,0 c 0.121214,-0.0082 0.23022,0.01634 0.28517,0.07129 0.01511,0.01511 0.02328,0.03089 0.02458,0.04425 v 0.0025 c -4.9e-5,5.91e-4 -3.8e-5,0.0058 0,0.0074 -3.11e-4,0.0011 -0.002,0.0062 -0.0025,0.0074 v 0.0025 c -0.02862,0.05016 -0.168285,0.08447 -0.368755,0.07621 -0.154112,-0.0063 -0.247518,-0.02626 -0.275336,-0.05408 l -0.0025,-0.0025 -0.0025,-0.0025 v -0.0025 c -3.61e-4,-9.38e-4 -0.0022,-0.0064 -0.0025,-0.0074 v -0.0025 -0.0025 -0.0025 -0.0025 -0.0025 -0.0025 l 0.0025,-0.0025 c 0.01335,-0.02128 0.0545,-0.04736 0.12046,-0.07375 0.07162,-0.02866 0.148524,-0.04672 0.221252,-0.05163 z m 1.588102,0 c 0.121213,-0.0082 0.23022,0.01634 0.28517,0.07129 0.01511,0.01511 0.02328,0.03089 0.02458,0.04425 v 0.0025 c -4.9e-5,5.91e-4 -3.8e-5,0.0058 0,0.0074 -3.11e-4,0.0011 -0.002,0.0062 -0.0025,0.0074 l -0.0025,0.0025 c -0.02862,0.05016 -0.165826,0.08447 -0.366296,0.07621 -0.154112,-0.0063 -0.247518,-0.02626 -0.275336,-0.05408 l -0.0025,-0.0025 -0.0025,-0.0025 -0.0025,-0.0025 v -0.0025 -0.0025 -0.0025 l -0.0025,-0.0025 v -0.0025 -0.0025 c 2.8e-4,-0.001 0.002,-0.0063 0.0025,-0.0074 l 0.0025,-0.0025 c 0.01335,-0.02128 0.0545,-0.04736 0.12046,-0.07375 0.07162,-0.02866 0.148524,-0.04672 0.221252,-0.05163 z m 1.912606,0 c 0.143867,0.0018 0.27673,0.02276 0.366296,0.059 0.02799,0.01132 0.04696,0.02165 0.05654,0.03196 l 0.0025,0.0025 0.0025,0.0025 c 4.3e-4,9.93e-4 0.0022,0.0064 0.0025,0.0074 v 0.0025 0.0025 0.0025 0.0025 c -5.91e-4,9.1e-4 -0.0042,0.0065 -0.0049,0.0074 l -0.0025,0.0025 c -0.04559,0.03632 -0.237137,0.06009 -0.523631,0.05654 -0.236614,-0.0029 -0.391894,-0.02442 -0.440047,-0.05163 h -0.0025 l -0.0025,-0.0025 -0.0025,-0.0025 -0.0025,-0.0025 v -0.0025 l -0.0025,-0.0025 v -0.0025 -0.0025 -0.0025 -0.0025 c 4.32e-4,-9.13e-4 0.0018,-0.004 0.0025,-0.0049 l 0.0025,-0.0025 c 0.01564,-0.01508 0.05856,-0.0324 0.122918,-0.04917 0.128716,-0.03355 0.28143,-0.05094 0.425297,-0.04917 z M -142.77804,91.082565 h 0.002 0.002 c 0.001,1.4e-5 0.006,-1.43e-4 0.007,0 0.0452,0.0082 0.13959,0.07543 0.28271,0.194211 0.21469,0.178173 0.38987,0.366168 0.40071,0.427755 v 0.0025 0.0025 c 0,0.296417 -0.49686,0.03654 -0.63917,-0.334338 -0.057,-0.148407 -0.0821,-0.241785 -0.0713,-0.277794 l 0.002,-0.0025 0.002,-0.0025 v -0.0025 l 0.002,-0.0025 h 0.002 v -0.0025 h 0.002 z m 8.46906,14.750175 h 0.002 0.002 0.002 c 0.0588,0.0107 0.17203,0.18679 0.25321,0.39825 0.0838,0.21828 0.0377,0.3958 -0.10325,0.3958 -0.14095,0 -0.25567,-0.17752 -0.25567,-0.3958 0,-0.20464 0.0411,-0.37537 0.0934,-0.39579 h 0.002 z M 92.295444,138.04465 A 10.457759,10.457759 0 0 1 102.75332,148.50253 10.457759,10.457759 0 0 1 92.295444,158.9604 10.457759,10.457759 0 0 1 81.837572,148.50253 10.457759,10.457759 0 0 1 92.295444,138.04465 Z m 95.160736,0 a 10.457759,10.457759 0 0 1 10.45787,10.45788 10.457759,10.457759 0 0 1 -10.45787,10.45787 10.457759,10.457759 0 0 1 -10.45788,-10.45787 10.457759,10.457759 0 0 1 10.45788,-10.45788 z m 95.67698,0 a 10.457759,10.457759 0 0 1 10.45788,10.45788 10.457759,10.457759 0 0 1 -10.45788,10.45787 10.457759,10.457759 0 0 1 -10.45787,-10.45787 10.457759,10.457759 0 0 1 10.45787,-10.45788 z m -341.798348,33.24689 h 0.0025 0.0025 c 0.0013,-8e-5 0.0056,6e-5 0.0074,0 h 0.0025 c 0.08564,0.0288 0.308093,0.37157 0.523631,0.82355 0.211756,0.44406 0.348233,0.81826 0.334337,0.90468 -3.44e-4,0.001 -0.002,0.006 -0.0025,0.007 l -0.0025,0.002 v 0.002 h -0.0025 v 0.002 h -0.0025 v 0.002 h -0.0025 -0.0025 -0.0025 c -0.184713,-0.0243 -0.946368,-1.54702 -0.87026,-1.73069 7.23e-4,-0.001 0.0041,-0.006 0.0049,-0.007 l 0.0025,-0.002 0.0025,-0.002 h 0.0025 z m 5.654232,59.98649 c 0.02404,-0.002 0.04831,-9.5e-4 0.07129,0 0.09192,0.004 0.172376,0.0298 0.216336,0.0737 0.01426,0.0146 0.02332,0.0288 0.02458,0.0418 10e-6,0.001 9.8e-5,0.006 0,0.007 -2.04e-4,0.001 -0.0021,0.006 -0.0025,0.007 v 0.002 c -0.0244,0.0521 -0.163926,0.0871 -0.368754,0.0787 -0.154112,-0.006 -0.247518,-0.0263 -0.275337,-0.0541 l -0.0025,-0.002 -0.0025,-0.002 -0.0025,-0.002 v -0.002 l -0.0025,-0.002 v -0.002 c 2.3e-5,-9.9e-4 -1.52e-4,-0.006 0,-0.007 l 0.0025,-0.002 v -0.002 c 7.07e-4,-0.001 0.004,-0.006 0.0049,-0.007 0.01663,-0.0207 0.0574,-0.047 0.118001,-0.0713 0.07162,-0.0286 0.146664,-0.0466 0.218794,-0.0516 z" /><g
         id="text15"
         style="font-size:124.481px;font-family:'Open Sans';-inkscape-font-specification:'Open Sans';fill:#42d293;stroke-width:10.3734"
         aria-label="VueSeq"><path
           style="font-weight:800;font-family:'Public Sans';-inkscape-font-specification:'Public Sans Ultra-Bold'"
           d="m -69.089667,349.2388 -30.746808,-89.99976 h 20.103682 l 22.468821,65.29028 22.406581,-65.29028 h 20.165922 l -30.809048,89.99976 z m 77.408748,1.24481 q -4.1701135,0 -8.46470814,-1.36929 -4.29459456,-1.36929 -7.90454366,-3.98339 -3.6099492,-2.67634 -5.8506072,-6.47302 -2.178418,-3.85891 -2.178418,-8.83815 V 284.88212 H 5.1448155 v 42.07458 q 0,3.60995 2.48962,6.03733 2.4896205,2.36514 7.1576575,2.36514 4.481316,0 7.095417,-2.3029 2.614101,-2.36514 2.614101,-6.22405 v -41.9501 h 21.03729 V 349.2388 H 29.729814 l -2.489621,-13.00826 q -1.182569,6.03732 -4.356835,9.14935 -3.174265,3.04978 -7.157657,4.04563 -3.921152,1.05809 -7.40662,1.05809 z m 79.176114,0 q -9.771759,0 -17.240619,-4.04563 -7.40662,-4.04564 -11.576734,-11.39001 -4.107873,-7.34438 -4.107873,-17.24062 0,-9.39832 3.73443,-17.11614 3.796671,-7.78006 10.954329,-12.38586 7.157657,-4.66804 17.240619,-4.66804 10.207442,0 17.053893,4.2946 6.84646,4.23235 10.26969,11.70121 3.48546,7.40662 3.48546,16.99166 v 5.29044 H 75.420537 q -0.06224,4.41908 1.369291,7.46886 1.431532,2.98754 4.045633,4.54356 2.614101,1.55601 6.099569,1.55601 3.983392,0 7.033177,-1.61825 3.112025,-1.6805 4.543556,-5.78837 h 18.921117 q -1.05809,7.03318 -5.60165,12.07466 -4.48132,4.97924 -10.95433,7.65558 -6.47301,2.67634 -13.381705,2.67634 z M 75.358297,309.71608 h 22.282099 q 0,-3.17426 -1.24481,-5.78836 -1.24481,-2.67635 -3.73443,-4.23236 -2.427379,-1.55601 -6.161809,-1.55601 -3.298747,0 -5.850608,1.68049 -2.48962,1.61825 -3.921151,4.2946 -1.369291,2.6141 -1.369291,5.60164 z"
           id="path2" /><path
           style="font-weight:100;font-family:'Public Sans';-inkscape-font-specification:'Public Sans Thin';fill:#6282fa"
           d="m 157.71498,350.48361 q -6.34853,0 -11.8257,-1.49377 -5.47716,-1.55601 -9.834,-4.48132 -4.35683,-2.98754 -7.2199,-7.28214 -2.80082,-4.35683 -3.79667,-10.02072 h 5.47717 q 1.36929,6.09957 5.35268,10.20744 3.98339,4.10788 9.70952,6.16181 5.72613,2.05394 12.1369,2.05394 7.2199,0 13.00826,-2.36514 5.78837,-2.42738 9.14936,-6.78421 3.42322,-4.35684 3.42322,-10.20744 0,-6.09957 -3.67219,-10.33193 -3.60995,-4.23235 -12.38586,-6.78421 l -20.16592,-5.85061 q -5.41492,-1.61825 -9.77176,-4.17011 -4.35683,-2.55186 -6.90869,-6.72198 -2.55186,-4.23235 -2.55186,-10.7676 0,-6.84646 3.73443,-12.1369 3.79667,-5.35269 10.33192,-8.34023 6.53525,-3.04978 14.81324,-3.04978 10.02072,0 16.68045,3.73443 6.72198,3.67219 10.08296,9.39831 3.42323,5.72613 3.36099,11.76346 h -5.47716 q -0.68465,-7.59334 -4.41908,-11.95018 -3.67219,-4.35683 -9.08711,-6.22405 -5.35268,-1.86721 -11.32777,-1.86721 -11.20329,0 -17.3651,5.41492 -6.09957,5.41492 -6.09957,13.25723 0,6.97093 4.23235,10.7676 4.2946,3.79667 11.8257,5.97509 l 20.53936,5.91285 q 7.28214,2.05393 11.39001,5.5394 4.10788,3.42323 5.78837,7.65558 1.6805,4.23236 1.6805,8.77592 0,6.78421 -3.73443,12.32361 -3.67219,5.47717 -10.58089,8.71367 -6.84646,3.17427 -16.49373,3.17427 z m 67.9233,0 q -8.46471,0 -14.93772,-3.79667 -6.41077,-3.85891 -10.08296,-11.20329 -3.60995,-7.34438 -3.60995,-17.86302 0,-10.64313 3.2365,-18.23647 3.29875,-7.65558 9.5228,-11.70122 6.28629,-4.04563 15.12444,-4.04563 8.34023,0 14.19084,3.67219 5.91284,3.67219 9.02487,10.64313 3.17427,6.90869 3.17427,16.80493 v 3.48547 h -48.98328 q 0,7.28214 2.42738,13.56843 2.42738,6.22405 7.59334,10.08296 5.16596,3.85891 13.31947,3.85891 7.65558,0 13.0705,-3.67219 5.41493,-3.67219 6.53526,-10.02072 h 5.29044 q -1.24481,6.22405 -4.97924,10.33192 -3.73443,4.10788 -8.96263,6.09957 -5.16596,1.9917 -10.95433,1.9917 z m -23.21571,-36.97086 h 43.69283 q 0,-7.15766 -2.3029,-12.82154 -2.30289,-5.72613 -7.03317,-9.02487 -4.73028,-3.29875 -12.01242,-3.29875 -7.90454,0 -12.88378,3.79667 -4.917,3.73443 -7.2199,9.5228 -2.3029,5.78836 -2.24066,11.82569 z m 107.56405,55.76749 v -33.67211 q -0.74689,1.86722 -2.24066,4.35684 -1.49377,2.48962 -4.10787,4.91699 -2.55186,2.42738 -6.47301,4.04564 -3.92116,1.55601 -9.46056,1.55601 -8.21575,0 -14.37756,-3.73443 -6.16181,-3.73443 -9.58503,-11.39001 -3.42323,-7.71782 -3.42323,-19.48128 0,-9.70952 2.9253,-16.92942 2.98755,-7.28213 9.08712,-11.26553 6.09957,-4.04563 15.3734,-4.04563 5.5394,0 9.46056,1.55601 3.92115,1.55602 6.53525,3.92116 2.6141,2.36513 4.10787,4.79251 1.49377,2.42738 2.17842,4.17012 l 0.24896,-13.19499 h 4.73028 v 84.39812 z m -22.2821,-23.40243 q 7.28214,0 12.26138,-3.79667 5.04148,-3.85891 7.59334,-10.51864 2.6141,-6.65974 2.6141,-15.18668 0,-12.82155 -5.78837,-20.41489 -5.72612,-7.59334 -16.68045,-7.59334 -9.95848,0 -16.05805,6.84645 -6.09957,6.84646 -6.09957,21.16178 0,13.25722 5.41493,21.41073 5.47716,8.09126 16.74269,8.09126 z"
           id="path3" /></g></g></g></svg>
